<svg width="277" height="42" viewBox="0 0 277 42" fill="none" xmlns="http://www.w3.org/2000/svg">
<path d="M8.136 27.8L6.156 24.092L15.732 10.988H23.076L8.136 27.8ZM2.556 35V10.988H8.388V35H2.556ZM13.356 20.132L23.832 35H16.524L8.856 23.876L13.356 20.132ZM35.0888 35.54C33.2648 35.54 31.6448 35.168 30.2288 34.424C28.8368 33.656 27.7448 32.576 26.9528 31.184C26.1848 29.768 25.8008 28.088 25.8008 26.144C25.8008 22.976 26.5808 20.528 28.1408 18.8C29.7248 17.048 31.9808 16.172 34.9088 16.172C36.9248 16.172 38.5448 16.604 39.7688 17.468C41.0168 18.332 41.9288 19.592 42.5048 21.248C43.0808 22.904 43.3568 24.92 43.3328 27.296H29.4728L28.8968 23.876H38.9048L38.1128 25.568C38.0888 23.624 37.8128 22.256 37.2848 21.464C36.7568 20.672 35.8928 20.276 34.6928 20.276C34.0208 20.276 33.4088 20.444 32.8568 20.78C32.3288 21.116 31.9088 21.68 31.5968 22.472C31.3088 23.24 31.1648 24.308 31.1648 25.676C31.1648 27.404 31.5728 28.736 32.3888 29.672C33.2288 30.608 34.5608 31.076 36.3848 31.076C37.0568 31.076 37.7168 31.004 38.3648 30.86C39.0368 30.692 39.6608 30.5 40.2368 30.284C40.8128 30.068 41.3048 29.876 41.7128 29.708V34.316C40.8488 34.676 39.8768 34.964 38.7968 35.18C37.7408 35.42 36.5048 35.54 35.0888 35.54ZM47.0596 18.332C47.5156 18.092 48.1156 17.852 48.8596 17.612C49.6036 17.348 50.4196 17.12 51.3076 16.928C52.1956 16.736 53.0836 16.58 53.9716 16.46C54.8836 16.34 55.7236 16.28 56.4916 16.28C58.1236 16.28 59.5156 16.496 60.6676 16.928C61.8196 17.336 62.6956 18.008 63.2956 18.944C63.9196 19.88 64.2316 21.152 64.2316 22.76V35H58.8676V23.84C58.8676 23.384 58.7956 22.964 58.6516 22.58C58.5316 22.196 58.3396 21.872 58.0756 21.608C57.8116 21.32 57.4516 21.104 56.9956 20.96C56.5396 20.792 55.9876 20.708 55.3396 20.708C54.7876 20.708 54.2356 20.78 53.6836 20.924C53.1316 21.044 52.7116 21.176 52.4236 21.32V35H47.0596V18.332ZM68.2411 35V30.752L77.9971 19.7L78.5371 20.816H68.4571V16.784H82.7131V20.96L73.6411 32.084L73.4611 30.716H82.7131V35H68.2411ZM86.8238 35V17.036H92.1878L92.2238 35H86.8238ZM86.7158 14.3V10.16H92.2598V14.3H86.7158ZM105.261 35.54C103.437 35.54 101.817 35.168 100.401 34.424C99.0086 33.656 97.9166 32.576 97.1246 31.184C96.3566 29.768 95.9726 28.088 95.9726 26.144C95.9726 22.976 96.7526 20.528 98.3126 18.8C99.8966 17.048 102.153 16.172 105.081 16.172C107.097 16.172 108.717 16.604 109.941 17.468C111.189 18.332 112.101 19.592 112.677 21.248C113.253 22.904 113.529 24.92 113.505 27.296H99.6446L99.0686 23.876H109.077L108.285 25.568C108.261 23.624 107.985 22.256 107.457 21.464C106.929 20.672 106.065 20.276 104.865 20.276C104.193 20.276 103.581 20.444 103.029 20.78C102.501 21.116 102.081 21.68 101.769 22.472C101.481 23.24 101.337 24.308 101.337 25.676C101.337 27.404 101.745 28.736 102.561 29.672C103.401 30.608 104.733 31.076 106.557 31.076C107.229 31.076 107.889 31.004 108.537 30.86C109.209 30.692 109.833 30.5 110.409 30.284C110.985 30.068 111.477 29.876 111.885 29.708V34.316C111.021 34.676 110.049 34.964 108.969 35.18C107.913 35.42 106.677 35.54 105.261 35.54Z" fill="#0022FA"/>
<path d="M137.981 35.468C134.141 35.468 131.201 34.46 129.161 32.444C127.145 30.404 126.137 27.26 126.137 23.012C126.137 18.884 127.109 15.764 129.053 13.652C130.997 11.516 133.973 10.448 137.981 10.448C139.253 10.448 140.537 10.604 141.833 10.916C143.129 11.228 144.389 11.66 145.613 12.212V17.288C144.365 16.472 143.165 15.884 142.013 15.524C140.861 15.164 139.781 14.984 138.773 14.984C137.357 14.984 136.157 15.236 135.173 15.74C134.213 16.244 133.469 17.084 132.941 18.26C132.437 19.436 132.185 21.02 132.185 23.012C132.185 25.004 132.437 26.576 132.941 27.728C133.469 28.88 134.237 29.708 135.245 30.212C136.277 30.692 137.537 30.932 139.025 30.932C139.913 30.932 140.921 30.764 142.049 30.428C143.177 30.092 144.365 29.516 145.613 28.7V33.776C144.941 34.112 144.173 34.412 143.309 34.676C142.469 34.916 141.581 35.108 140.645 35.252C139.733 35.396 138.845 35.468 137.981 35.468ZM158.064 35.54C154.992 35.54 152.676 34.724 151.116 33.092C149.58 31.436 148.812 29.012 148.812 25.82C148.812 22.388 149.592 19.928 151.152 18.44C152.736 16.928 155.04 16.172 158.064 16.172C160.104 16.172 161.808 16.52 163.176 17.216C164.568 17.888 165.612 18.932 166.308 20.348C167.028 21.764 167.388 23.588 167.388 25.82C167.388 29.012 166.584 31.436 164.976 33.092C163.368 34.724 161.064 35.54 158.064 35.54ZM158.064 31.256C158.952 31.256 159.684 31.052 160.26 30.644C160.86 30.212 161.304 29.6 161.592 28.808C161.904 27.992 162.06 26.996 162.06 25.82C162.06 24.476 161.904 23.42 161.592 22.652C161.304 21.86 160.86 21.296 160.26 20.96C159.66 20.6 158.928 20.42 158.064 20.42C157.152 20.42 156.408 20.6 155.832 20.96C155.256 21.32 154.824 21.896 154.536 22.688C154.272 23.456 154.14 24.5 154.14 25.82C154.14 27.644 154.452 29.012 155.076 29.924C155.724 30.812 156.72 31.256 158.064 31.256ZM171.091 18.332C171.547 18.092 172.147 17.852 172.891 17.612C173.635 17.348 174.451 17.12 175.339 16.928C176.227 16.736 177.115 16.58 178.003 16.46C178.915 16.34 179.755 16.28 180.523 16.28C182.155 16.28 183.547 16.496 184.699 16.928C185.851 17.336 186.727 18.008 187.327 18.944C187.951 19.88 188.263 21.152 188.263 22.76V35H182.899V23.84C182.899 23.384 182.827 22.964 182.683 22.58C182.563 22.196 182.371 21.872 182.107 21.608C181.843 21.32 181.483 21.104 181.027 20.96C180.571 20.792 180.019 20.708 179.371 20.708C178.819 20.708 178.267 20.78 177.715 20.924C177.163 21.044 176.743 21.176 176.455 21.32V35H171.091V18.332ZM200.48 35.72C198.368 35.72 196.796 35.228 195.764 34.244C194.732 33.236 194.216 31.82 194.216 29.996V20.888H191.552V16.784H194.216V11.78H199.832V16.784H203.828V20.888H199.832V29.312C199.832 29.936 199.964 30.404 200.228 30.716C200.492 31.004 200.936 31.148 201.56 31.148C201.92 31.148 202.316 31.076 202.748 30.932C203.18 30.788 203.54 30.608 203.828 30.392V35C203.324 35.264 202.772 35.444 202.172 35.54C201.596 35.66 201.032 35.72 200.48 35.72ZM214.919 35.54C213.815 35.54 212.771 35.432 211.787 35.216C210.827 35.024 209.975 34.7 209.231 34.244C208.511 33.764 207.947 33.128 207.539 32.336C207.131 31.52 206.927 30.512 206.927 29.312C206.927 28.184 207.155 27.2 207.611 26.36C208.091 25.52 208.811 24.872 209.771 24.416C210.731 23.96 211.943 23.732 213.407 23.732C214.223 23.732 215.015 23.816 215.783 23.984C216.551 24.152 217.235 24.38 217.835 24.668C218.459 24.956 218.951 25.268 219.311 25.604L219.527 28.196C219.047 27.908 218.471 27.68 217.799 27.512C217.127 27.344 216.407 27.26 215.639 27.26C214.463 27.26 213.599 27.44 213.047 27.8C212.519 28.136 212.255 28.676 212.255 29.42C212.255 29.876 212.387 30.284 212.651 30.644C212.915 31.004 213.263 31.28 213.695 31.472C214.151 31.664 214.619 31.76 215.099 31.76C216.323 31.76 217.175 31.676 217.655 31.508C218.159 31.34 218.411 31.004 218.411 30.5V23.804C218.411 22.7 218.051 21.908 217.331 21.428C216.635 20.924 215.639 20.672 214.343 20.672C213.287 20.672 212.219 20.864 211.139 21.248C210.083 21.608 209.219 22.052 208.547 22.58V17.828C209.171 17.444 210.131 17.084 211.427 16.748C212.747 16.412 214.223 16.244 215.855 16.244C216.431 16.244 217.067 16.292 217.763 16.388C218.459 16.484 219.155 16.664 219.851 16.928C220.547 17.168 221.183 17.528 221.759 18.008C222.359 18.488 222.839 19.1 223.199 19.844C223.559 20.588 223.739 21.512 223.739 22.616L223.703 31.22C223.703 32.252 223.355 33.092 222.659 33.74C221.963 34.364 220.955 34.82 219.635 35.108C218.339 35.396 216.767 35.54 214.919 35.54ZM237.033 35.468C235.737 35.468 234.513 35.276 233.361 34.892C232.209 34.508 231.189 33.932 230.301 33.164C229.413 32.396 228.717 31.424 228.213 30.248C227.709 29.072 227.457 27.704 227.457 26.144C227.457 24.488 227.697 23.048 228.177 21.824C228.657 20.576 229.317 19.544 230.157 18.728C231.021 17.912 232.029 17.3 233.181 16.892C234.333 16.484 235.605 16.28 236.997 16.28C237.981 16.28 238.989 16.388 240.021 16.604C241.077 16.796 242.001 17.072 242.793 17.432V22.04C241.953 21.656 241.125 21.344 240.309 21.104C239.517 20.84 238.701 20.708 237.861 20.708C236.349 20.708 235.125 21.092 234.189 21.86C233.277 22.604 232.821 23.828 232.821 25.532C232.821 27.332 233.229 28.688 234.045 29.6C234.861 30.512 236.217 30.968 238.113 30.968C239.001 30.968 239.853 30.812 240.669 30.5C241.509 30.188 242.229 29.864 242.829 29.528V34.1C241.989 34.532 241.113 34.868 240.201 35.108C239.289 35.348 238.233 35.468 237.033 35.468ZM254.023 35.72C251.911 35.72 250.339 35.228 249.307 34.244C248.275 33.236 247.759 31.82 247.759 29.996V20.888H245.095V16.784H247.759V11.78H253.375V16.784H257.371V20.888H253.375V29.312C253.375 29.936 253.507 30.404 253.771 30.716C254.035 31.004 254.479 31.148 255.103 31.148C255.463 31.148 255.859 31.076 256.291 30.932C256.723 30.788 257.083 30.608 257.371 30.392V35C256.867 35.264 256.315 35.444 255.715 35.54C255.139 35.66 254.575 35.72 254.023 35.72ZM266.842 35.54C265.546 35.54 264.43 35.396 263.494 35.108C262.582 34.844 261.718 34.544 260.902 34.208V29.492C261.406 29.828 261.97 30.176 262.594 30.536C263.218 30.872 263.902 31.148 264.646 31.364C265.414 31.58 266.218 31.688 267.058 31.688C267.922 31.688 268.522 31.544 268.858 31.256C269.218 30.944 269.398 30.572 269.398 30.14C269.398 29.732 269.218 29.408 268.858 29.168C268.498 28.904 268.03 28.688 267.454 28.52C266.878 28.352 266.266 28.196 265.618 28.052C265.042 27.932 264.466 27.752 263.89 27.512C263.314 27.248 262.798 26.9 262.342 26.468C261.886 26.036 261.514 25.508 261.226 24.884C260.962 24.236 260.83 23.456 260.83 22.544C260.83 21.368 261.058 20.396 261.514 19.628C261.97 18.836 262.57 18.2 263.314 17.72C264.058 17.24 264.862 16.904 265.726 16.712C266.59 16.496 267.43 16.4 268.246 16.424C269.734 16.472 270.91 16.64 271.774 16.928C272.662 17.192 273.466 17.54 274.186 17.972V22.184C273.37 21.728 272.554 21.308 271.738 20.924C270.946 20.516 270.034 20.312 269.002 20.312C268.066 20.312 267.394 20.456 266.986 20.744C266.578 21.032 266.374 21.416 266.374 21.896C266.374 22.352 266.506 22.712 266.77 22.976C267.058 23.24 267.43 23.456 267.886 23.624C268.342 23.768 268.846 23.912 269.398 24.056C269.998 24.2 270.61 24.38 271.234 24.596C271.882 24.788 272.482 25.076 273.034 25.46C273.61 25.82 274.066 26.336 274.402 27.008C274.762 27.656 274.942 28.52 274.942 29.6C274.918 31.064 274.522 32.24 273.754 33.128C272.986 33.992 271.99 34.616 270.766 35C269.566 35.36 268.258 35.54 266.842 35.54Z" fill="#000942"/>
</svg>
