<svg width="120" height="18" viewBox="0 0 120 18" fill="none" xmlns="http://www.w3.org/2000/svg">
<path d="M3.51827 11.8865L2.66205 10.283L6.80303 4.61643H9.97881L3.51827 11.8865ZM1.1053 15V4.61643H3.62724V15H1.1053ZM5.77557 8.57059L10.3057 15H7.14551L3.82962 10.1896L5.77557 8.57059ZM15.1735 15.2335C14.3848 15.2335 13.6842 15.0726 13.0719 14.7509C12.4699 14.4188 11.9977 13.9518 11.6552 13.3498C11.3231 12.7375 11.1571 12.011 11.1571 11.1704C11.1571 9.80043 11.4944 8.74184 12.169 7.99459C12.8539 7.23697 13.8295 6.85816 15.0957 6.85816C15.9675 6.85816 16.668 7.04497 17.1973 7.41859C17.737 7.79222 18.1314 8.33708 18.3804 9.05319C18.6295 9.7693 18.7489 10.6411 18.7385 11.6685H12.745L12.4959 10.1896H16.8237L16.4812 10.9213C16.4708 10.0806 16.3515 9.48908 16.1231 9.14659C15.8948 8.80411 15.5212 8.63286 15.0023 8.63286C14.7117 8.63286 14.447 8.70551 14.2083 8.85081C13.98 8.99611 13.7984 9.24 13.6635 9.58249C13.5389 9.91459 13.4766 10.3764 13.4766 10.968C13.4766 11.7152 13.6531 12.2912 14.0059 12.696C14.3692 13.1008 14.9452 13.3031 15.7339 13.3031C16.0245 13.3031 16.3099 13.272 16.5902 13.2097C16.8808 13.1371 17.1506 13.0541 17.3997 12.9606C17.6488 12.8672 17.8615 12.7842 18.0379 12.7116V14.7042C17.6643 14.8599 17.244 14.9844 16.777 15.0778C16.3203 15.1816 15.7858 15.2335 15.1735 15.2335ZM20.3501 7.79222C20.5473 7.68843 20.8067 7.58465 21.1285 7.48086C21.4502 7.3667 21.8031 7.26811 22.1871 7.18508C22.5711 7.10205 22.9551 7.03459 23.3391 6.9827C23.7334 6.93081 24.0967 6.90486 24.4288 6.90486C25.1345 6.90486 25.7365 6.99827 26.2346 7.18508C26.7328 7.36151 27.1116 7.65211 27.3711 8.05686C27.6409 8.46162 27.7758 9.01168 27.7758 9.70703V15H25.4563V10.1741C25.4563 9.97686 25.4251 9.79524 25.3629 9.62919C25.311 9.46313 25.2279 9.32303 25.1138 9.20886C24.9996 9.08432 24.8439 8.99092 24.6467 8.92865C24.4496 8.856 24.2109 8.81968 23.9306 8.81968C23.6919 8.81968 23.4532 8.85081 23.2145 8.91308C22.9758 8.96497 22.7942 9.02205 22.6697 9.08432V15H20.3501V7.79222ZM29.5097 15V13.163L33.7285 8.38378L33.962 8.86638H29.6031V7.12281H35.7678V8.92865L31.8448 13.739L31.767 13.1475H35.7678V15H29.5097ZM37.5454 15V7.23178H39.865L39.8806 15H37.5454ZM37.4987 6.04865V4.25838H39.8961V6.04865H37.4987ZM45.5181 15.2335C44.7294 15.2335 44.0288 15.0726 43.4165 14.7509C42.8145 14.4188 42.3423 13.9518 41.9998 13.3498C41.6677 12.7375 41.5017 12.011 41.5017 11.1704C41.5017 9.80043 41.839 8.74184 42.5136 7.99459C43.1985 7.23697 44.1741 6.85816 45.4403 6.85816C46.3121 6.85816 47.0126 7.04497 47.5419 7.41859C48.0816 7.79222 48.4759 8.33708 48.725 9.05319C48.9741 9.7693 49.0935 10.6411 49.0831 11.6685H43.0896L42.8405 10.1896H47.1683L46.8258 10.9213C46.8154 10.0806 46.6961 9.48908 46.4677 9.14659C46.2394 8.80411 45.8658 8.63286 45.3469 8.63286C45.0563 8.63286 44.7916 8.70551 44.5529 8.85081C44.3246 8.99611 44.143 9.24 44.0081 9.58249C43.8835 9.91459 43.8212 10.3764 43.8212 10.968C43.8212 11.7152 43.9977 12.2912 44.3505 12.696C44.7138 13.1008 45.2898 13.3031 46.0785 13.3031C46.3691 13.3031 46.6545 13.272 46.9348 13.2097C47.2254 13.1371 47.4952 13.0541 47.7443 12.9606C47.9934 12.8672 48.2061 12.7842 48.3825 12.7116V14.7042C48.0089 14.8599 47.5886 14.9844 47.1216 15.0778C46.6649 15.1816 46.1304 15.2335 45.5181 15.2335Z" fill="#0022FA"/>
<path d="M59.6673 15.2024C58.0068 15.2024 56.7354 14.7665 55.8533 13.8947C54.9815 13.0125 54.5456 11.653 54.5456 9.816C54.5456 8.03092 54.9659 6.68173 55.8066 5.76843C56.6472 4.84476 57.9341 4.38292 59.6673 4.38292C60.2174 4.38292 60.7726 4.45038 61.3331 4.5853C61.8935 4.72022 62.4384 4.90703 62.9677 5.14573V7.34076C62.428 6.98789 61.9091 6.73362 61.4109 6.57795C60.9127 6.42227 60.4457 6.34443 60.0098 6.34443C59.3975 6.34443 58.8786 6.4534 58.4531 6.67135C58.0379 6.8893 57.7162 7.25254 57.4879 7.76108C57.2699 8.26962 57.1609 8.95459 57.1609 9.816C57.1609 10.6774 57.2699 11.3572 57.4879 11.8554C57.7162 12.3535 58.0483 12.7116 58.4842 12.9295C58.9305 13.1371 59.4753 13.2409 60.1188 13.2409C60.5028 13.2409 60.9387 13.1682 61.4265 13.0229C61.9142 12.8776 62.428 12.6285 62.9677 12.2757V14.4707C62.6771 14.616 62.3449 14.7457 61.9713 14.8599C61.6081 14.9637 61.2241 15.0467 60.8193 15.109C60.4249 15.1712 60.0409 15.2024 59.6673 15.2024ZM68.3522 15.2335C67.0238 15.2335 66.0223 14.8806 65.3477 14.1749C64.6834 13.4588 64.3513 12.4106 64.3513 11.0303C64.3513 9.54616 64.6886 8.48238 65.3632 7.83892C66.0482 7.18508 67.0445 6.85816 68.3522 6.85816C69.2344 6.85816 69.9712 7.00865 70.5628 7.30962C71.1647 7.60022 71.6162 8.05168 71.9172 8.664C72.2285 9.27632 72.3842 10.0651 72.3842 11.0303C72.3842 12.4106 72.0365 13.4588 71.3412 14.1749C70.6458 14.8806 69.6495 15.2335 68.3522 15.2335ZM68.3522 13.381C68.7362 13.381 69.0527 13.2928 69.3018 13.1163C69.5613 12.9295 69.7533 12.6649 69.8778 12.3224C70.0127 11.9695 70.0802 11.5388 70.0802 11.0303C70.0802 10.4491 70.0127 9.99243 69.8778 9.66032C69.7533 9.31784 69.5613 9.07395 69.3018 8.92865C69.0424 8.77297 68.7258 8.69513 68.3522 8.69513C67.9578 8.69513 67.6361 8.77297 67.387 8.92865C67.1379 9.08432 66.9511 9.3334 66.8266 9.67589C66.7124 10.008 66.6553 10.4595 66.6553 11.0303C66.6553 11.819 66.7903 12.4106 67.0601 12.805C67.3403 13.189 67.771 13.381 68.3522 13.381ZM73.9852 7.79222C74.1824 7.68843 74.4419 7.58465 74.7636 7.48086C75.0853 7.3667 75.4382 7.26811 75.8222 7.18508C76.2062 7.10205 76.5902 7.03459 76.9742 6.9827C77.3686 6.93081 77.7318 6.90486 78.0639 6.90486C78.7697 6.90486 79.3716 6.99827 79.8698 7.18508C80.3679 7.36151 80.7467 7.65211 81.0062 8.05686C81.276 8.46162 81.411 9.01168 81.411 9.70703V15H79.0914V10.1741C79.0914 9.97686 79.0603 9.79524 78.998 9.62919C78.9461 9.46313 78.8631 9.32303 78.7489 9.20886C78.6347 9.08432 78.4791 8.99092 78.2819 8.92865C78.0847 8.856 77.846 8.81968 77.5658 8.81968C77.3271 8.81968 77.0884 8.85081 76.8497 8.91308C76.611 8.96497 76.4293 9.02205 76.3048 9.08432V15H73.9852V7.79222ZM86.6942 15.3114C85.7809 15.3114 85.1011 15.0986 84.6549 14.6731C84.2086 14.2372 83.9854 13.6249 83.9854 12.8361V8.89751H82.8334V7.12281H83.9854V4.95892H86.414V7.12281H88.142V8.89751H86.414V12.5403C86.414 12.8102 86.4711 13.0125 86.5852 13.1475C86.6994 13.272 86.8914 13.3343 87.1612 13.3343C87.3169 13.3343 87.4882 13.3031 87.675 13.2409C87.8618 13.1786 88.0174 13.1008 88.142 13.0074V15C87.924 15.1142 87.6853 15.192 87.4259 15.2335C87.1768 15.2854 86.9329 15.3114 86.6942 15.3114ZM92.9381 15.2335C92.4607 15.2335 92.0093 15.1868 91.5838 15.0934C91.1686 15.0104 90.8002 14.8703 90.4785 14.6731C90.1671 14.4655 89.9232 14.1905 89.7468 13.848C89.5704 13.4951 89.4821 13.0592 89.4821 12.5403C89.4821 12.0525 89.5807 11.627 89.7779 11.2638C89.9855 10.9005 90.2968 10.6203 90.712 10.4231C91.1271 10.2259 91.6512 10.1274 92.2843 10.1274C92.6372 10.1274 92.9796 10.1637 93.3118 10.2363C93.6439 10.309 93.9396 10.4076 94.1991 10.5321C94.4689 10.6566 94.6817 10.7916 94.8374 10.9369L94.9308 12.0577C94.7232 11.9332 94.4741 11.8346 94.1835 11.7619C93.8929 11.6893 93.5816 11.653 93.2495 11.653C92.7409 11.653 92.3673 11.7308 92.1286 11.8865C91.9003 12.0318 91.7861 12.2653 91.7861 12.587C91.7861 12.7842 91.8432 12.9606 91.9574 13.1163C92.0715 13.272 92.222 13.3914 92.4088 13.4744C92.606 13.5574 92.8084 13.5989 93.016 13.5989C93.5453 13.5989 93.9137 13.5626 94.1213 13.4899C94.3392 13.4173 94.4482 13.272 94.4482 13.0541V10.1585C94.4482 9.68108 94.2925 9.33859 93.9812 9.13103C93.6802 8.91308 93.2495 8.80411 92.6891 8.80411C92.2324 8.80411 91.7706 8.88713 91.3035 9.05319C90.8469 9.20886 90.4733 9.40086 90.1827 9.62919V7.57427C90.4525 7.40822 90.8676 7.25254 91.4281 7.10724C91.9989 6.96195 92.6372 6.8893 93.3429 6.8893C93.592 6.8893 93.867 6.91005 94.168 6.95157C94.4689 6.99308 94.7699 7.07092 95.0709 7.18508C95.3719 7.28886 95.6469 7.44454 95.896 7.65211C96.1554 7.85968 96.363 8.12432 96.5187 8.44605C96.6744 8.76778 96.7522 9.16735 96.7522 9.64476L96.7366 13.3654C96.7366 13.8117 96.5861 14.1749 96.2852 14.4551C95.9842 14.725 95.5483 14.9222 94.9775 15.0467C94.4171 15.1712 93.7373 15.2335 92.9381 15.2335ZM102.501 15.2024C101.94 15.2024 101.411 15.1194 100.913 14.9533C100.415 14.7872 99.9736 14.5382 99.5896 14.2061C99.2056 13.8739 98.9046 13.4536 98.6867 12.9451C98.4688 12.4365 98.3598 11.845 98.3598 11.1704C98.3598 10.4543 98.4636 9.83157 98.6711 9.30227C98.8787 8.76259 99.1641 8.31632 99.5274 7.96346C99.901 7.61059 100.337 7.34595 100.835 7.16951C101.333 6.99308 101.883 6.90486 102.485 6.90486C102.911 6.90486 103.347 6.95157 103.793 7.04497C104.25 7.128 104.649 7.24735 104.992 7.40303V9.39568C104.628 9.22962 104.27 9.0947 103.917 8.99092C103.575 8.87676 103.222 8.81968 102.859 8.81968C102.205 8.81968 101.676 8.98573 101.271 9.31784C100.877 9.63957 100.679 10.1689 100.679 10.9057C100.679 11.6841 100.856 12.2705 101.209 12.6649C101.562 13.0592 102.148 13.2564 102.968 13.2564C103.352 13.2564 103.72 13.189 104.073 13.0541C104.436 12.9191 104.748 12.779 105.007 12.6337V14.6108C104.644 14.7976 104.265 14.9429 103.871 15.0467C103.476 15.1505 103.02 15.2024 102.501 15.2024ZM109.848 15.3114C108.935 15.3114 108.255 15.0986 107.809 14.6731C107.362 14.2372 107.139 13.6249 107.139 12.8361V8.89751H105.987V7.12281H107.139V4.95892H109.568V7.12281H111.296V8.89751H109.568V12.5403C109.568 12.8102 109.625 13.0125 109.739 13.1475C109.853 13.272 110.045 13.3343 110.315 13.3343C110.471 13.3343 110.642 13.3031 110.829 13.2409C111.015 13.1786 111.171 13.1008 111.296 13.0074V15C111.078 15.1142 110.839 15.192 110.58 15.2335C110.331 15.2854 110.087 15.3114 109.848 15.3114ZM115.391 15.2335C114.831 15.2335 114.348 15.1712 113.944 15.0467C113.549 14.9325 113.176 14.8028 112.823 14.6575V12.6182C113.041 12.7635 113.285 12.9139 113.554 13.0696C113.824 13.2149 114.12 13.3343 114.442 13.4277C114.774 13.5211 115.121 13.5678 115.485 13.5678C115.858 13.5678 116.118 13.5055 116.263 13.381C116.419 13.2461 116.497 13.0852 116.497 12.8984C116.497 12.7219 116.419 12.5818 116.263 12.4781C116.107 12.3639 115.905 12.2705 115.656 12.1978C115.407 12.1252 115.142 12.0577 114.862 11.9955C114.613 11.9436 114.364 11.8657 114.115 11.7619C113.866 11.6478 113.643 11.4973 113.445 11.3105C113.248 11.1237 113.087 10.8954 112.963 10.6255C112.849 10.3453 112.792 10.008 112.792 9.61362C112.792 9.10508 112.89 8.68476 113.087 8.35265C113.285 8.01016 113.544 7.73513 113.866 7.52757C114.187 7.32 114.535 7.1747 114.909 7.09168C115.282 6.99827 115.646 6.95676 115.998 6.96713C116.642 6.98789 117.15 7.06054 117.524 7.18508C117.908 7.29924 118.256 7.44973 118.567 7.63654V9.45795C118.214 9.26076 117.861 9.07913 117.509 8.91308C117.166 8.73665 116.772 8.64843 116.325 8.64843C115.921 8.64843 115.63 8.7107 115.454 8.83524C115.277 8.95978 115.189 9.12584 115.189 9.3334C115.189 9.53059 115.246 9.68627 115.36 9.80043C115.485 9.91459 115.646 10.008 115.843 10.0806C116.04 10.1429 116.258 10.2052 116.497 10.2675C116.756 10.3297 117.021 10.4076 117.291 10.501C117.571 10.584 117.83 10.7085 118.069 10.8746C118.318 11.0303 118.515 11.2534 118.661 11.544C118.816 11.8242 118.894 12.1978 118.894 12.6649C118.884 13.2979 118.712 13.8065 118.38 14.1905C118.048 14.5641 117.617 14.8339 117.088 15C116.569 15.1557 116.004 15.2335 115.391 15.2335Z" fill="#000942"/>
</svg>
